#N canvas 898 98 454 514 10;
#X obj -952 19 gemwin;
#X msg -971 -34 destroy;
#X obj -971 -61 sel 0 1;
#X obj -971 -100 tgl 30 0 empty empty empty 17 7 0 10 -262144 -1 -1
0 1;
#X obj -917 -68 loadbang;
#X msg -917 -48 \; pd dsp 1;
#N canvas 799 263 564 469 mask 0;
#X obj 48 -17 loadbang;
#X obj 35 73 gemframebuffer;
#X obj 35 98 translateXYZ 0 0 -4;
#X obj 35 200 repeat 8;
#X obj 35 231 t a b;
#X obj 35 269 separator;
#X obj 107 207 f;
#X obj 134 207 + 1;
#X obj 164 207 % 8;
#X obj 35 306 translateXYZ;
#X obj 107 256 * 0.5;
#N canvas 453 431 262 286 motion 0;
#X floatatom -632 65 5 0 0 0 - - -;
#X obj -632 137 line;
#X obj -632 162 inback;
#X obj -632 213 outlet;
#X msg -632 112 0 \, 1 2000;
#X obj -632 43 r time;
#X msg -589 139 -16;
#X obj -544 102 line;
#X obj -544 127 inback;
#X msg -544 77 0 \, 1 1000;
#X obj -632 88 sel 4 14;
#X obj -632 187 k_range 0 1 -16 0;
#X obj -544 150 k_range 0 1 0 16;
#X connect 0 0 10 0;
#X connect 1 0 2 0;
#X connect 2 0 11 0;
#X connect 4 0 1 0;
#X connect 5 0 0 0;
#X connect 6 0 3 0;
#X connect 7 0 8 0;
#X connect 8 0 12 0;
#X connect 9 0 7 0;
#X connect 10 0 4 0;
#X connect 10 0 6 0;
#X connect 10 1 9 0;
#X connect 11 0 3 0;
#X connect 12 0 3 0;
#X restore 74 137 pd motion;
#X floatatom 134 318 5 0 0 0 - - -;
#N canvas 641 438 224 275 motion 0;
#X obj -632 137 line;
#X obj -632 213 outlet;
#X floatatom -580 22 5 0 0 0 - - -;
#X obj -632 162 inback;
#X obj -580 1 r time;
#X msg -542 83 1 \, 0 1000;
#X obj -580 44 sel 2 4 12;
#X msg -632 112 0 \, 1 3500;
#X msg -580 67 0;
#X obj -632 187 k_range 0 1 0.2 1.6;
#X connect 0 0 3 0;
#X connect 2 0 6 0;
#X connect 3 0 9 0;
#X connect 4 0 2 0;
#X connect 5 0 0 0;
#X connect 6 0 8 0;
#X connect 6 1 7 0;
#X connect 6 2 5 0;
#X connect 7 0 0 0;
#X connect 8 0 9 0;
#X connect 9 0 1 0;
#X restore 134 294 pd motion;
#X obj 35 356 scale 0.2 1 40 1;
#X obj 35 130 alpha;
#X msg 48 10 format RGBA \, color 0 0 0 0 \, dimen 1000 1000 \, texunit
1;
#X obj 35 39 gemhead 20;
#X obj 34 380 vj_rect 16 0;
#X obj 35 163 translateXYZ -16 0 0;
#X obj 107 232 k_range 0 7 -16 16;
#X connect 0 0 16 0;
#X connect 1 0 2 0;
#X connect 2 0 15 0;
#X connect 3 0 4 0;
#X connect 4 0 5 0;
#X connect 4 1 6 0;
#X connect 5 0 9 0;
#X connect 6 0 7 0;
#X connect 6 0 20 0;
#X connect 7 0 8 0;
#X connect 8 0 6 1;
#X connect 9 0 14 0;
#X connect 10 0 9 1;
#X connect 11 0 19 1;
#X connect 12 0 14 1;
#X connect 13 0 12 0;
#X connect 14 0 18 0;
#X connect 15 0 19 0;
#X connect 16 0 1 0;
#X connect 17 0 1 0;
#X connect 19 0 3 0;
#X connect 20 0 10 0;
#X restore -810 185 pd mask;
#X obj -906 44 tgl 15 0 empty empty empty 17 7 0 10 -262144 -1 -1 0
1;
#X obj -876 187 + 1;
#X floatatom -906 214 5 0 0 0 - - -;
#X obj -906 243 s time;
#N canvas 396 96 660 667 white 0;
#N canvas 861 313 525 426 motion 0;
#X obj -632 137 line;
#X floatatom -573 25 5 0 0 0 - - -;
#X obj -573 4 r time;
#X obj -499 219 outlet;
#X obj -632 239 outlet;
#X obj -632 162 inbounce;
#X obj -501 171 outbounce;
#X obj -573 48 sel 0 1 4;
#X msg -573 76 0;
#X floatatom -603 210 5 0 0 0 - - -;
#X msg -653 87 0 \, 1 2000;
#X msg -519 94 1 \, 0 1000;
#X obj -632 187 k_range 0 1 0.1 0.9;
#X connect 0 0 5 0;
#X connect 0 0 6 0;
#X connect 1 0 7 0;
#X connect 2 0 1 0;
#X connect 5 0 12 0;
#X connect 6 0 3 0;
#X connect 7 0 8 0;
#X connect 7 1 10 0;
#X connect 7 2 11 0;
#X connect 8 0 3 0;
#X connect 8 0 4 0;
#X connect 9 0 4 0;
#X connect 10 0 0 0;
#X connect 11 0 0 0;
#X connect 12 0 4 0;
#X restore -705 127 pd motion;
#X obj -719 78 > 0.003;
#X obj -696 27 loadbang;
#X msg -696 49 0;
#X obj -719 110 gemhead 100;
#X obj -590 111 loadbang;
#X obj -723 179 scale 1;
#X msg -659 176 stroke \$1;
#N canvas 575 363 566 383 motion 0;
#X obj -591 149 line;
#X floatatom -532 37 5 0 0 0 - - -;
#X obj -532 16 r time;
#X obj -458 231 outlet;
#X obj -591 251 outlet;
#X obj -591 174 inbounce;
#X obj -460 183 outbounce;
#X msg -532 88 0;
#X msg -612 99 0 \, 1 1500;
#X obj -532 60 sel 0 2 5;
#X msg -478 106 1 \, 5 1000;
#X obj -592 199 k_range 0 1 0.8 0.95;
#X connect 0 0 5 0;
#X connect 0 0 6 0;
#X connect 1 0 9 0;
#X connect 2 0 1 0;
#X connect 5 0 11 0;
#X connect 6 0 3 0;
#X connect 7 0 3 0;
#X connect 7 0 4 0;
#X connect 8 0 0 0;
#X connect 9 0 7 0;
#X connect 9 1 8 0;
#X connect 9 2 10 0;
#X connect 10 0 0 0;
#X connect 11 0 4 0;
#X restore -902 143 pd motion;
#X obj -925 20 loadbang;
#X msg -925 42 0;
#X obj -987 127 gemhead 100;
#X obj -987 43 loadbang;
#X obj -991 196 scale 1;
#X msg -902 193 stroke \$1;
#X obj -654 150 * 0.5;
#X obj -737 591 loadbang;
#X msg -658 533 x \$1;
#X floatatom -658 476 5 0 0 0 - - -;
#X obj -850 488 separator;
#X obj -851 461 t a b;
#X obj -767 465 f;
#X obj -738 465 + 1;
#X obj -658 424 line;
#X obj -851 357 gemhead 60;
#X obj -851 628 vj_square 1;
#X obj -658 449 inoutcirc;
#X floatatom -620 338 5 0 0 0 - - -;
#X obj -620 317 r time;
#X obj -851 331 expr if($f1>0&&$f1<1 \, 1 \, 0);
#X msg -714 541 y 0;
#X obj -714 514 t b;
#X obj -851 389 rotateXYZ 0 0 0;
#X obj -660 350 * 90;
#X obj -907 279 loadbang;
#X msg -907 298 0;
#X obj -619 361 sel 5;
#X msg -658 397 1 \, 0 1000;
#X obj -658 511 * 2;
#X obj -987 95 expr if($f1>0&&$f1<5 \, 1 \, 0);
#X obj -851 435 repeat 10;
#X obj -708 465 % 10;
#X obj -767 494 * 36;
#X obj -849 559 rotateXYZ 0 0 0;
#X msg -737 614 drawfill 1 \, size 0.01 \, speed 100;
#X obj -855 168 * 1.3;
#X msg -588 135 color 1 1 1 \, drawfill 1 \, end 1.1;
#X msg -985 67 color 1 1 1 \, drawfill 1 \, end 0.8 \, drawpoint 1
;
#X obj -991 222 vj_quarter 0.5;
#X obj -723 206 vj_quarter 0.5;
#X obj -805 230 diy2;
#X connect 0 0 7 0;
#X connect 0 1 1 0;
#X connect 0 1 15 0;
#X connect 1 0 4 0;
#X connect 2 0 3 0;
#X connect 3 0 4 0;
#X connect 4 0 6 0;
#X connect 5 0 46 0;
#X connect 6 0 49 0;
#X connect 7 0 49 1;
#X connect 8 0 14 0;
#X connect 8 1 39 0;
#X connect 8 1 45 0;
#X connect 9 0 10 0;
#X connect 10 0 11 0;
#X connect 11 0 13 0;
#X connect 12 0 47 0;
#X connect 13 0 48 0;
#X connect 14 0 48 1;
#X connect 15 0 6 1;
#X connect 16 0 44 0;
#X connect 17 0 25 1;
#X connect 18 0 31 0;
#X connect 18 0 38 0;
#X connect 19 0 43 0;
#X connect 20 0 19 0;
#X connect 20 1 21 0;
#X connect 21 0 22 0;
#X connect 21 0 42 0;
#X connect 22 0 41 0;
#X connect 23 0 26 0;
#X connect 23 0 29 0;
#X connect 24 0 32 0;
#X connect 26 0 18 0;
#X connect 26 0 33 0;
#X connect 27 0 36 0;
#X connect 28 0 27 0;
#X connect 29 0 24 0;
#X connect 30 0 25 1;
#X connect 31 0 30 0;
#X connect 32 0 40 0;
#X connect 33 0 32 3;
#X connect 34 0 35 0;
#X connect 35 0 24 0;
#X connect 36 0 37 0;
#X connect 37 0 23 0;
#X connect 38 0 17 0;
#X connect 39 0 11 0;
#X connect 40 0 20 0;
#X connect 41 0 21 1;
#X connect 42 0 43 3;
#X connect 43 0 25 0;
#X connect 44 0 25 1;
#X connect 45 0 13 1;
#X connect 46 0 49 1;
#X connect 47 0 48 1;
#X restore -810 138 pd white circle;
#N canvas 346 263 521 469 combine 0;
#X obj -557 356 pix_texture;
#X obj -557 110 alpha;
#X obj -557 304 glsl_program;
#X obj -466 223 pack 0 0;
#X obj -445 189 t b f;
#X obj -445 141 change;
#X obj -466 112 change;
#X msg -466 249 link \$1 \$2;
#X floatatom -445 167 2 0 0 0 ID - -;
#X floatatom -466 135 2 0 0 0 ID - -;
#X obj -557 177 glsl_vertex;
#X obj -557 268 glsl_fragment;
#X obj -557 59 gemframebuffer;
#X obj -557 84 translateXYZ 0 0 -4;
#X obj -624 85 loadbang;
#X msg -597 143 open base.vert;
#X obj -624 119 t b b;
#X obj -624 63 bng 15 250 50 0 empty empty empty 17 7 0 10 -262144
-1 -1;
#X msg -624 198 open base.frag;
#X obj -397 105 pix_texture;
#X obj -397 143 alpha;
#X obj -485 -3 loadbang;
#X obj -557 383 rectangle 8 4;
#X msg -485 24 format RGBA \, color 0 0 0 0 \, dimen 1000 1000;
#X obj -397 168 rectangle 8 4;
#X msg -488 326 iResolution 1000 1000 \, tex1 1 \, tex2 2;
#X obj -397 82 gemhead 30;
#X obj -557 25 gemhead 30;
#X connect 0 0 22 0;
#X connect 1 0 10 0;
#X connect 2 0 0 0;
#X connect 2 1 25 0;
#X connect 3 0 7 0;
#X connect 4 0 3 0;
#X connect 4 1 3 1;
#X connect 5 0 8 0;
#X connect 6 0 9 0;
#X connect 7 0 2 0;
#X connect 8 0 4 0;
#X connect 9 0 3 0;
#X connect 10 0 11 0;
#X connect 10 1 6 0;
#X connect 11 0 2 0;
#X connect 11 1 5 0;
#X connect 12 0 13 0;
#X connect 12 1 19 1;
#X connect 13 0 1 0;
#X connect 14 0 16 0;
#X connect 15 0 10 0;
#X connect 16 0 18 0;
#X connect 16 1 15 0;
#X connect 17 0 14 0;
#X connect 18 0 11 0;
#X connect 19 0 20 0;
#X connect 20 0 24 0;
#X connect 21 0 23 0;
#X connect 23 0 12 0;
#X connect 25 0 2 0;
#X connect 26 0 19 0;
#X connect 27 0 12 0;
#X restore -810 208 pd combine;
#N canvas 424 233 1162 627 flow-rect 0;
#X obj -306 482 loadbang;
#X msg -227 424 x \$1;
#X floatatom -227 367 5 0 0 0 - - -;
#X obj -419 379 separator;
#X obj -420 330 t a b;
#X obj -336 356 f;
#X obj -307 356 + 1;
#X obj -227 315 line;
#X obj -238 143 bng 15 250 50 0 empty empty empty 17 7 0 10 -262144
-1 -1;
#X obj 39 416 loadbang;
#X msg 41 440 color 1 1 1 \, drawfill 1 \, end 1.1;
#X obj -134 433 scale 1;
#X msg -45 430 stroke \$1;
#X obj -134 340 gemhead 60;
#X obj -420 248 gemhead 60;
#X msg -227 288 0 \, 1 1000;
#X obj -420 519 vj_square 1;
#X obj -336 385 * 110;
#X obj -277 356 % 5;
#X obj -420 304 repeat 5;
#X obj -227 340 inoutcirc;
#X obj -420 280 translateXYZ 4 0.1 0;
#X obj -49 274 line;
#X floatatom -144 41 5 0 0 0 - - -;
#X obj -144 20 r time;
#X obj -49 299 inbounce;
#X msg -70 224 0 \, 1 1500;
#X msg -3 222 1 \, 0 1000;
#X obj -134 375 translateXYZ 4 0.1 0;
#X obj 346 333 loadbang;
#X msg 348 357 color 1 1 1 \, drawfill 1 \, end 1.1;
#X obj 173 350 scale 1;
#X msg 262 347 stroke \$1;
#X obj 173 257 gemhead 60;
#X obj 258 191 line;
#X obj 258 216 inbounce;
#X msg 237 141 0 \, 1 1000;
#X obj 173 292 translateXYZ 5 -1.5 0;
#X msg -94 119 0;
#X floatatom 390 132 5 0 0 0 - - -;
#X obj 390 111 r time;
#X obj 368 211 unpack f f;
#X floatatom 50 211 5 0 0 0 - - -;
#X obj 50 190 r time;
#X obj 51 286 unpack f f;
#X msg 51 262 4 0.1;
#X msg 104 258 -1 -1;
#X floatatom -366 122 5 0 0 0 - - -;
#X obj -366 101 r time;
#X obj -388 201 unpack f f;
#X msg -335 173 -1 -1;
#X obj -417 26 expr if($f1>0&&$f1<1 \, 1 \, 0);
#X obj 318 269 outexpo;
#X obj 15 359 outexpo;
#X obj 318 295 * 0.3;
#X obj 15 384 * 1;
#X msg 421 183 -1 -1;
#X msg -306 507 drawfill 1 \, size 0.01 \, speed 50;
#X msg 368 187 5 0.5;
#X obj -227 402 * 5;
#X msg -283 432 y 0;
#X msg -388 177 5 0.5;
#X obj -418 450 rotateXYZ 0 0 0;
#X obj -283 405 t b;
#X obj 391 155 sel 0 26;
#X obj 51 234 sel 0 26;
#X obj -365 145 sel 0 26;
#X obj -41 94 loadbang;
#X obj -145 64 sel 0 23 30;
#X obj -134 459 vj_quarter 0.5;
#X obj 173 376 vj_quarter 0.5;
#X obj -50 324 k_range 0 1 0.9 0.99;
#X obj 257 241 k_range 0 1 0.9 0.99;
#X connect 0 0 57 0;
#X connect 1 0 16 1;
#X connect 2 0 59 0;
#X connect 2 0 63 0;
#X connect 3 0 62 0;
#X connect 4 0 3 0;
#X connect 4 1 5 0;
#X connect 5 0 6 0;
#X connect 5 0 17 0;
#X connect 6 0 18 0;
#X connect 7 0 20 0;
#X connect 7 0 51 0;
#X connect 8 0 15 0;
#X connect 8 0 26 0;
#X connect 8 0 36 0;
#X connect 9 0 10 0;
#X connect 10 0 69 1;
#X connect 11 0 69 0;
#X connect 12 0 69 1;
#X connect 13 0 28 0;
#X connect 14 0 21 0;
#X connect 15 0 7 0;
#X connect 17 0 62 3;
#X connect 18 0 5 1;
#X connect 19 0 4 0;
#X connect 20 0 2 0;
#X connect 21 0 19 0;
#X connect 22 0 25 0;
#X connect 22 0 53 0;
#X connect 23 0 68 0;
#X connect 24 0 23 0;
#X connect 25 0 71 0;
#X connect 26 0 22 0;
#X connect 27 0 22 0;
#X connect 28 0 11 0;
#X connect 29 0 30 0;
#X connect 30 0 70 1;
#X connect 31 0 70 0;
#X connect 32 0 70 1;
#X connect 33 0 37 0;
#X connect 34 0 35 0;
#X connect 34 0 52 0;
#X connect 35 0 72 0;
#X connect 36 0 34 0;
#X connect 37 0 31 0;
#X connect 38 0 22 0;
#X connect 38 0 7 0;
#X connect 38 0 34 0;
#X connect 38 0 14 0;
#X connect 39 0 64 0;
#X connect 40 0 39 0;
#X connect 41 0 37 1;
#X connect 41 1 37 2;
#X connect 42 0 65 0;
#X connect 43 0 42 0;
#X connect 44 0 28 1;
#X connect 44 1 28 2;
#X connect 45 0 44 0;
#X connect 46 0 44 0;
#X connect 47 0 66 0;
#X connect 48 0 47 0;
#X connect 49 0 21 1;
#X connect 49 1 21 2;
#X connect 50 0 49 0;
#X connect 51 0 14 0;
#X connect 51 0 13 0;
#X connect 51 0 33 0;
#X connect 52 0 54 0;
#X connect 53 0 55 0;
#X connect 54 0 31 1;
#X connect 55 0 11 1;
#X connect 56 0 41 0;
#X connect 57 0 16 1;
#X connect 58 0 41 0;
#X connect 59 0 1 0;
#X connect 60 0 16 1;
#X connect 61 0 49 0;
#X connect 62 0 16 0;
#X connect 63 0 60 0;
#X connect 64 0 58 0;
#X connect 64 1 56 0;
#X connect 65 0 45 0;
#X connect 65 1 46 0;
#X connect 66 0 61 0;
#X connect 66 1 50 0;
#X connect 67 0 38 0;
#X connect 68 0 38 0;
#X connect 68 1 8 0;
#X connect 68 2 8 0;
#X connect 71 0 12 0;
#X connect 72 0 32 0;
#X restore -703 192 pd flow-rect;
#X obj -819 -119 r time;
#X msg -819 -76 color 1 0.31 0.43;
#N canvas 412 474 1040 726 orange-rect 0;
#X obj 70 -7 color 1 0.71 0;
#X obj 214 -202 r time;
#X obj 71 -32 gemhead 5;
#X obj 72 71 rectangle 8 0.5;
#X obj 73 28 translateXYZ 0 3.5 0;
#X obj 73 133 color 1 0.71 0;
#X obj 74 108 gemhead 5;
#X obj 75 211 rectangle 8 0.5;
#X obj 76 168 translateXYZ 0 1.5 0;
#X obj 76 284 color 1 0.71 0;
#X obj 77 259 gemhead 5;
#X obj 78 362 rectangle 8 0.5;
#X obj 79 319 translateXYZ 0 -0.5 0;
#X obj 71 422 color 1 0.71 0;
#X obj 72 397 gemhead 5;
#X obj 73 500 rectangle 8 0.5;
#X obj 74 457 translateXYZ 0 -2.5 0;
#X obj 272 74 rectangle 8 0.5;
#X obj 273 136 color 1 0.71 0;
#X obj 274 111 gemhead 5;
#X obj 275 214 rectangle 8 0.5;
#X obj 276 287 color 1 0.71 0;
#X obj 277 262 gemhead 5;
#X obj 278 365 rectangle 8 0.5;
#X obj 271 425 color 1 0.71 0;
#X obj 272 400 gemhead 5;
#X obj 273 503 rectangle 8 0.5;
#X obj 273 31 translateXYZ 0 2.5 0;
#X obj 270 -5 color 1 0.71 0;
#X obj 276 171 translateXYZ 0 0.5 0;
#X obj 279 322 translateXYZ 0 -1.5 0;
#X obj 274 460 translateXYZ 0 -3.5 0;
#X msg 153 394 -16;
#X msg 218 403 16;
#X msg 45 -125 0 \, 1 1000;
#X obj 43 -104 line;
#X msg -51 89 0 \, 1 1000;
#X obj -53 110 line;
#X obj -50 65 del 100;
#X msg -54 260 0 \, 1 1000;
#X obj -56 281 line;
#X msg -60 411 0 \, 1 1000;
#X obj -62 432 line;
#X msg 367 -79 0 \, 1 1000;
#X obj 365 -58 line;
#X msg 424 113 0 \, 1 1000;
#X obj 422 134 line;
#X msg 432 294 0 \, 1 1000;
#X obj 430 315 line;
#X msg 436 422 0 \, 1 1000;
#X obj 434 443 line;
#X obj 368 -103 del 50;
#X obj 425 89 del 150;
#X obj -53 236 del 200;
#X obj 433 270 del 250;
#X obj -59 386 del 300;
#X obj 437 398 del 350;
#X obj -68 -101 f;
#X obj 271 -29 gemhead 10;
#X obj -52 131 inback;
#X obj 44 -83 inback;
#X obj 366 -37 inback;
#X obj 423 155 inback;
#X obj 431 335 inback;
#X obj 435 464 inback;
#X obj -55 302 inback;
#X obj 188 373 bng 15 250 50 0 empty empty empty 17 7 0 10 -262144
-1 -1;
#X obj 240 -111 bng 15 250 50 0 empty empty empty 17 7 0 10 -262144
-1 -1;
#X obj -61 453 inback;
#X msg -18 -186 0;
#X msg 21 -165 1;
#X msg 306 -137 0;
#X obj 214 -178 sel 0 1 10 29 30 33 34;
#X obj 44 -61 k_range 0 1 -16 0;
#X obj -52 153 k_range 0 1 -16 0;
#X obj -55 324 k_range 0 1 -16 0;
#X obj -61 475 k_range 0 1 -16 0;
#X obj 366 -15 k_range 0 1 16 0;
#X obj 423 177 k_range 0 1 16 0;
#X obj 431 358 k_range 0 1 16 0;
#X obj 435 486 k_range 0 1 16 0;
#X connect 0 0 4 0;
#X connect 1 0 72 0;
#X connect 2 0 0 0;
#X connect 4 0 3 0;
#X connect 5 0 8 0;
#X connect 6 0 5 0;
#X connect 8 0 7 0;
#X connect 9 0 12 0;
#X connect 10 0 9 0;
#X connect 12 0 11 0;
#X connect 13 0 16 0;
#X connect 14 0 13 0;
#X connect 16 0 15 0;
#X connect 18 0 29 0;
#X connect 19 0 18 0;
#X connect 21 0 30 0;
#X connect 22 0 21 0;
#X connect 24 0 31 0;
#X connect 25 0 24 0;
#X connect 27 0 17 0;
#X connect 28 0 27 0;
#X connect 29 0 20 0;
#X connect 30 0 23 0;
#X connect 31 0 26 0;
#X connect 32 0 4 1;
#X connect 32 0 8 1;
#X connect 32 0 12 1;
#X connect 32 0 16 1;
#X connect 33 0 27 1;
#X connect 33 0 29 1;
#X connect 33 0 30 1;
#X connect 33 0 31 1;
#X connect 34 0 35 0;
#X connect 35 0 60 0;
#X connect 36 0 37 0;
#X connect 37 0 59 0;
#X connect 38 0 36 0;
#X connect 39 0 40 0;
#X connect 40 0 65 0;
#X connect 41 0 42 0;
#X connect 42 0 68 0;
#X connect 43 0 44 0;
#X connect 44 0 61 0;
#X connect 45 0 46 0;
#X connect 46 0 62 0;
#X connect 47 0 48 0;
#X connect 48 0 63 0;
#X connect 49 0 50 0;
#X connect 50 0 64 0;
#X connect 51 0 43 0;
#X connect 52 0 45 0;
#X connect 53 0 39 0;
#X connect 54 0 47 0;
#X connect 55 0 41 0;
#X connect 56 0 49 0;
#X connect 57 0 2 0;
#X connect 57 0 6 0;
#X connect 57 0 10 0;
#X connect 57 0 14 0;
#X connect 57 0 19 0;
#X connect 57 0 22 0;
#X connect 57 0 25 0;
#X connect 57 0 58 0;
#X connect 58 0 28 0;
#X connect 59 0 74 0;
#X connect 60 0 73 0;
#X connect 61 0 77 0;
#X connect 62 0 78 0;
#X connect 63 0 79 0;
#X connect 64 0 80 0;
#X connect 65 0 75 0;
#X connect 66 0 32 0;
#X connect 66 0 33 0;
#X connect 67 0 34 0;
#X connect 67 0 51 0;
#X connect 67 0 38 0;
#X connect 67 0 53 0;
#X connect 67 0 55 0;
#X connect 67 0 52 0;
#X connect 67 0 54 0;
#X connect 67 0 56 0;
#X connect 68 0 76 0;
#X connect 69 0 57 0;
#X connect 70 0 57 0;
#X connect 71 0 73 0;
#X connect 71 0 74 0;
#X connect 71 0 75 0;
#X connect 71 0 76 0;
#X connect 71 0 77 0;
#X connect 71 0 78 0;
#X connect 71 0 79 0;
#X connect 71 0 80 0;
#X connect 72 0 66 0;
#X connect 72 0 69 0;
#X connect 72 1 67 0;
#X connect 72 1 70 0;
#X connect 72 2 69 0;
#X connect 72 3 70 0;
#X connect 72 3 71 0;
#X connect 72 4 67 0;
#X connect 72 5 67 0;
#X connect 72 6 69 0;
#X connect 73 0 4 1;
#X connect 74 0 8 1;
#X connect 75 0 12 1;
#X connect 76 0 16 1;
#X connect 77 0 27 1;
#X connect 78 0 29 1;
#X connect 79 0 30 1;
#X connect 80 0 31 1;
#X restore -811 116 pd orange-rect;
#N canvas 266 80 1327 618 puredata 0;
#X obj 116 1 gemhead;
#X obj 114 149 translateXYZ;
#X obj 114 124 separator;
#X obj 114 100 t a b;
#X obj 202 98 f;
#X obj 231 97 + 1;
#X obj 142 287 text2d;
#X msg 164 258 text \$1;
#X obj 285 266 symbol;
#X obj 43 203 loadbang;
#X msg 43 226 font ACaslonPro-BoldItalic.otf;
#X obj 202 121 t f f f;
#X obj 461 309 line;
#X obj 462 255 t b f;
#X msg 462 231 0;
#X obj 531 277 line;
#X obj 532 223 t b f;
#X obj 646 308 line;
#X obj 647 254 t b f;
#X obj 716 276 line;
#X obj 717 222 t b f;
#X obj 828 304 line;
#X obj 829 250 t b f;
#X msg 532 198 1;
#X msg 647 230 2;
#X msg 717 198 3;
#X msg 829 226 4;
#X obj 720 -20 tgl 15 0 empty empty empty 17 7 0 10 -262144 -1 -1 0
1;
#X obj 719 67 f;
#X obj 748 66 + 1;
#X obj 460 336 outelastic;
#X obj 531 305 outelastic;
#X obj 646 336 outelastic;
#X obj 716 304 outelastic;
#X obj 828 332 outelastic;
#X msg 461 280 0 \, 1 1000;
#X msg 531 248 0 \, 1 1000;
#X msg 646 279 0 \, 1 1000;
#X msg 716 246 0 \, 1 1000;
#X msg 828 275 0 \, 1 1000;
#X obj 824 27 sel 1;
#X obj 719 1 t f f;
#X obj 195 314 * 140;
#X obj 202 149 * 1.4;
#X obj 115 28 translateXYZ -2.7 0 0;
#X obj 157 -111 sel 1;
#X msg 157 -88 0 \, 1 2000;
#X obj 156 -67 line;
#X obj 156 -46 outexpo;
#X obj 338 8 line;
#X msg 339 -13 0 \, 1 2000;
#X obj 338 29 outexpo;
#X obj 328 -157 r time;
#X msg 328 -108 0;
#X msg 331 -73 1;
#X obj 328 -131 sel 0 22 26;
#X msg 285 155 P;
#X msg 300 176 u;
#X msg 315 201 r;
#X msg 330 163 e;
#X obj 285 131 sel 0 1 2 3 4 5 6 7;
#X msg 364 160 a;
#X msg 382 189 t;
#X msg 425 194 a;
#X msg 345 187 D;
#X obj 719 34 metro 80;
#X obj 641 -79 sel 7;
#X obj 776 66 % 8;
#X obj 114 78 repeat 8;
#X obj 259 97 % 8;
#X obj 954 304 line;
#X obj 955 250 t b f;
#X obj 1024 272 line;
#X obj 1025 218 t b f;
#X obj 1139 303 line;
#X obj 1140 249 t b f;
#X obj 953 331 outelastic;
#X obj 1024 300 outelastic;
#X obj 1139 331 outelastic;
#X msg 954 275 0 \, 1 1000;
#X msg 1024 243 0 \, 1 1000;
#X msg 1139 274 0 \, 1 1000;
#X obj 717 99 sel 0 1 2 3 4 5 6 7;
#X msg 955 226 5;
#X msg 1025 193 6;
#X msg 1140 225 7;
#X obj 894 49 table tt1 10;
#X msg 882 78 \; tt1 const 0;
#X obj 461 368 tabwrite tt1;
#X obj 531 336 tabwrite tt1;
#X obj 646 367 tabwrite tt1;
#X obj 716 334 tabwrite tt1;
#X obj 828 363 tabwrite tt1;
#X obj 954 363 tabwrite tt1;
#X obj 1024 331 tabwrite tt1;
#X obj 1139 362 tabwrite tt1;
#X obj 195 294 tabread tt1;
#X obj 338 53 k_range 0 1 0 1.4;
#X obj 156 -23 k_range 0 1 9 -5;
#X connect 0 0 44 0;
#X connect 1 0 6 0;
#X connect 2 0 1 0;
#X connect 3 0 2 0;
#X connect 3 1 4 0;
#X connect 4 0 5 0;
#X connect 4 0 11 0;
#X connect 5 0 69 0;
#X connect 7 0 6 0;
#X connect 8 0 7 0;
#X connect 9 0 10 0;
#X connect 10 0 6 0;
#X connect 11 0 43 0;
#X connect 11 1 60 0;
#X connect 11 2 96 0;
#X connect 12 0 30 0;
#X connect 13 0 35 0;
#X connect 13 1 88 1;
#X connect 14 0 13 0;
#X connect 15 0 31 0;
#X connect 16 0 36 0;
#X connect 16 1 89 1;
#X connect 17 0 32 0;
#X connect 18 0 37 0;
#X connect 18 1 90 1;
#X connect 19 0 33 0;
#X connect 20 0 38 0;
#X connect 20 1 91 1;
#X connect 21 0 34 0;
#X connect 22 0 39 0;
#X connect 22 1 92 1;
#X connect 23 0 16 0;
#X connect 24 0 18 0;
#X connect 25 0 20 0;
#X connect 26 0 22 0;
#X connect 27 0 41 0;
#X connect 27 0 45 0;
#X connect 28 0 29 0;
#X connect 28 0 66 0;
#X connect 28 0 82 0;
#X connect 29 0 67 0;
#X connect 30 0 88 0;
#X connect 31 0 89 0;
#X connect 32 0 90 0;
#X connect 33 0 91 0;
#X connect 34 0 92 0;
#X connect 35 0 12 0;
#X connect 36 0 15 0;
#X connect 37 0 17 0;
#X connect 38 0 19 0;
#X connect 39 0 21 0;
#X connect 40 0 87 0;
#X connect 41 0 65 0;
#X connect 41 1 40 0;
#X connect 42 0 6 1;
#X connect 43 0 1 1;
#X connect 44 0 68 0;
#X connect 45 0 46 0;
#X connect 45 0 50 0;
#X connect 46 0 47 0;
#X connect 47 0 48 0;
#X connect 48 0 98 0;
#X connect 49 0 51 0;
#X connect 50 0 49 0;
#X connect 51 0 97 0;
#X connect 52 0 55 0;
#X connect 53 0 0 0;
#X connect 53 0 98 0;
#X connect 54 0 0 0;
#X connect 55 0 53 0;
#X connect 55 1 27 0;
#X connect 55 1 54 0;
#X connect 55 2 53 0;
#X connect 56 0 8 0;
#X connect 57 0 8 0;
#X connect 58 0 8 0;
#X connect 59 0 8 0;
#X connect 60 0 56 0;
#X connect 60 1 57 0;
#X connect 60 2 58 0;
#X connect 60 3 59 0;
#X connect 60 4 64 0;
#X connect 60 5 61 0;
#X connect 60 6 62 0;
#X connect 60 7 63 0;
#X connect 61 0 8 0;
#X connect 62 0 8 0;
#X connect 63 0 8 0;
#X connect 64 0 8 0;
#X connect 65 0 28 0;
#X connect 66 0 27 0;
#X connect 67 0 28 1;
#X connect 68 0 3 0;
#X connect 69 0 4 1;
#X connect 70 0 76 0;
#X connect 71 0 79 0;
#X connect 71 1 93 1;
#X connect 72 0 77 0;
#X connect 73 0 80 0;
#X connect 73 1 94 1;
#X connect 74 0 78 0;
#X connect 75 0 81 0;
#X connect 75 1 95 1;
#X connect 76 0 93 0;
#X connect 77 0 94 0;
#X connect 78 0 95 0;
#X connect 79 0 70 0;
#X connect 80 0 72 0;
#X connect 81 0 74 0;
#X connect 82 0 14 0;
#X connect 82 1 23 0;
#X connect 82 2 24 0;
#X connect 82 3 25 0;
#X connect 82 4 26 0;
#X connect 82 5 83 0;
#X connect 82 6 84 0;
#X connect 82 7 85 0;
#X connect 83 0 71 0;
#X connect 84 0 73 0;
#X connect 85 0 75 0;
#X connect 96 0 42 0;
#X connect 97 0 43 1;
#X connect 98 0 44 1;
#X restore -812 232 pd puredata;
#N canvas 830 136 497 542 tutorial 0;
#X obj 114 2 gemhead;
#X obj 114 170 translateXYZ;
#X obj 114 124 separator;
#X obj 114 100 t a b;
#X obj 197 56 f;
#X obj 226 55 + 1;
#X obj 142 287 text2d;
#X msg 164 258 text \$1;
#X obj 285 266 symbol;
#X obj 43 203 loadbang;
#X msg 43 226 font ACaslonPro-BoldItalic.otf;
#X obj 197 79 t f f f;
#X obj 328 -157 r time;
#X msg 114 -29 0;
#X msg 348 -62 1;
#X obj 285 131 sel 0 1 2 3 4 5 6 7;
#X obj 114 78 repeat 8;
#X obj 254 55 % 8;
#X obj 114 29 translateXYZ -5 0 0;
#X msg 138 330 140;
#X obj 362 18 table tt2 10;
#X obj 231 295 tabread tt2;
#X obj 197 107 * 1.4;
#N canvas 230 60 996 611 return 0;
#X obj -167 370 line;
#X obj -166 316 t b f;
#X msg -166 292 0;
#X obj -97 338 line;
#X obj -96 284 t b f;
#X obj 18 369 line;
#X obj 19 315 t b f;
#X obj 88 337 line;
#X obj 89 283 t b f;
#X obj 200 365 line;
#X obj 201 311 t b f;
#X msg -96 259 1;
#X msg 19 291 2;
#X msg 89 259 3;
#X msg 201 287 4;
#X obj 92 41 tgl 15 0 empty empty empty 17 7 0 10 -262144 -1 -1 0 1
;
#X obj 91 128 f;
#X obj 120 127 + 1;
#X obj 91 62 t f f;
#X obj 91 95 metro 80;
#X obj 131 60 sel 7;
#X obj 148 127 % 8;
#X obj 326 365 line;
#X obj 327 311 t b f;
#X obj 396 333 line;
#X obj 397 279 t b f;
#X obj 511 364 line;
#X obj 512 310 t b f;
#X obj 89 160 sel 0 1 2 3 4 5 6 7;
#X msg 327 287 5;
#X msg 397 254 6;
#X msg 512 286 7;
#X obj -167 429 tabwrite tt2;
#X obj -97 397 tabwrite tt2;
#X obj 18 428 tabwrite tt2;
#X obj 88 396 tabwrite tt2;
#X obj 200 424 tabwrite tt2;
#X obj 326 424 tabwrite tt2;
#X obj 396 392 tabwrite tt2;
#X obj 511 423 tabwrite tt2;
#X obj -168 397 outbounce;
#X obj -97 366 outbounce;
#X obj 19 397 outbounce;
#X obj 88 365 outbounce;
#X obj 200 393 outbounce;
#X obj 326 392 outbounce;
#X obj 396 361 outbounce;
#X obj 511 392 outbounce;
#X obj 92 11 inlet;
#X msg -112 470 1 \, 0 1000;
#X msg -168 341 1 \, 0 1000;
#X msg -96 309 1 \, 0 1000;
#X msg 18 340 1 \, 0 1000;
#X msg 88 307 1 \, 0 1000;
#X msg 200 337 1 \, 0 1000;
#X msg 327 336 1 \, 0 1000;
#X msg 396 304 1 \, 0 1000;
#X msg 511 336 1 \, 0 1000;
#X connect 0 0 40 0;
#X connect 1 0 50 0;
#X connect 1 1 32 1;
#X connect 2 0 1 0;
#X connect 3 0 41 0;
#X connect 4 0 51 0;
#X connect 4 1 33 1;
#X connect 5 0 42 0;
#X connect 6 0 52 0;
#X connect 6 1 34 1;
#X connect 7 0 43 0;
#X connect 8 0 53 0;
#X connect 8 1 35 1;
#X connect 9 0 44 0;
#X connect 10 0 54 0;
#X connect 10 1 36 1;
#X connect 11 0 4 0;
#X connect 12 0 6 0;
#X connect 13 0 8 0;
#X connect 14 0 10 0;
#X connect 15 0 18 0;
#X connect 16 0 17 0;
#X connect 16 0 20 0;
#X connect 16 0 28 0;
#X connect 17 0 21 0;
#X connect 18 0 19 0;
#X connect 19 0 16 0;
#X connect 20 0 15 0;
#X connect 21 0 16 1;
#X connect 22 0 45 0;
#X connect 23 0 55 0;
#X connect 23 1 37 1;
#X connect 24 0 46 0;
#X connect 25 0 56 0;
#X connect 25 1 38 1;
#X connect 26 0 47 0;
#X connect 27 0 57 0;
#X connect 27 1 39 1;
#X connect 28 0 2 0;
#X connect 28 1 11 0;
#X connect 28 2 12 0;
#X connect 28 3 13 0;
#X connect 28 4 14 0;
#X connect 28 5 29 0;
#X connect 28 6 30 0;
#X connect 28 7 31 0;
#X connect 29 0 23 0;
#X connect 30 0 25 0;
#X connect 31 0 27 0;
#X connect 40 0 32 0;
#X connect 41 0 33 0;
#X connect 42 0 34 0;
#X connect 43 0 35 0;
#X connect 44 0 36 0;
#X connect 45 0 37 0;
#X connect 46 0 38 0;
#X connect 47 0 39 0;
#X connect 48 0 15 0;
#X connect 50 0 0 0;
#X connect 51 0 3 0;
#X connect 52 0 5 0;
#X connect 53 0 7 0;
#X connect 54 0 9 0;
#X connect 55 0 22 0;
#X connect 56 0 24 0;
#X connect 57 0 26 0;
#X restore 368 -14 pd return;
#N canvas 230 60 996 611 show 0;
#X obj 72 428 line;
#X obj 73 374 t b f;
#X msg 73 350 0;
#X obj 142 396 line;
#X obj 143 342 t b f;
#X obj 257 427 line;
#X obj 258 373 t b f;
#X obj 327 395 line;
#X obj 328 341 t b f;
#X obj 439 423 line;
#X obj 440 369 t b f;
#X msg 143 317 1;
#X msg 258 349 2;
#X msg 328 317 3;
#X msg 440 345 4;
#X obj 330 99 tgl 15 0 empty empty empty 17 7 0 10 -262144 -1 -1 0
1;
#X obj 330 186 f;
#X obj 359 185 + 1;
#X msg 72 399 0 \, 1 1000;
#X msg 142 367 0 \, 1 1000;
#X msg 257 398 0 \, 1 1000;
#X msg 327 365 0 \, 1 1000;
#X msg 439 394 0 \, 1 1000;
#X obj 419 141 sel 1;
#X obj 330 120 t f f;
#X obj 330 153 metro 80;
#X obj 358 100 sel 7;
#X obj 387 185 % 8;
#X obj 565 423 line;
#X obj 566 369 t b f;
#X obj 635 391 line;
#X obj 636 337 t b f;
#X obj 750 422 line;
#X obj 751 368 t b f;
#X msg 565 394 0 \, 1 1000;
#X msg 635 362 0 \, 1 1000;
#X msg 750 393 0 \, 1 1000;
#X obj 328 218 sel 0 1 2 3 4 5 6 7;
#X msg 566 345 5;
#X msg 636 312 6;
#X msg 751 344 7;
#X msg 419 173 \; tt2 const 0;
#X obj 72 487 tabwrite tt2;
#X obj 142 455 tabwrite tt2;
#X obj 257 486 tabwrite tt2;
#X obj 327 454 tabwrite tt2;
#X obj 439 482 tabwrite tt2;
#X obj 565 482 tabwrite tt2;
#X obj 635 450 tabwrite tt2;
#X obj 750 481 tabwrite tt2;
#X obj 71 455 outbounce;
#X obj 142 424 outbounce;
#X obj 258 455 outbounce;
#X obj 327 423 outbounce;
#X obj 439 451 outbounce;
#X obj 565 450 outbounce;
#X obj 635 419 outbounce;
#X obj 750 450 outbounce;
#X obj 330 65 inlet;
#X connect 0 0 50 0;
#X connect 1 0 18 0;
#X connect 1 1 42 1;
#X connect 2 0 1 0;
#X connect 3 0 51 0;
#X connect 4 0 19 0;
#X connect 4 1 43 1;
#X connect 5 0 52 0;
#X connect 6 0 20 0;
#X connect 6 1 44 1;
#X connect 7 0 53 0;
#X connect 8 0 21 0;
#X connect 8 1 45 1;
#X connect 9 0 54 0;
#X connect 10 0 22 0;
#X connect 10 1 46 1;
#X connect 11 0 4 0;
#X connect 12 0 6 0;
#X connect 13 0 8 0;
#X connect 14 0 10 0;
#X connect 15 0 24 0;
#X connect 16 0 17 0;
#X connect 16 0 26 0;
#X connect 16 0 37 0;
#X connect 17 0 27 0;
#X connect 18 0 0 0;
#X connect 19 0 3 0;
#X connect 20 0 5 0;
#X connect 21 0 7 0;
#X connect 22 0 9 0;
#X connect 23 0 41 0;
#X connect 24 0 25 0;
#X connect 24 1 23 0;
#X connect 25 0 16 0;
#X connect 26 0 15 0;
#X connect 27 0 16 1;
#X connect 28 0 55 0;
#X connect 29 0 34 0;
#X connect 29 1 47 1;
#X connect 30 0 56 0;
#X connect 31 0 35 0;
#X connect 31 1 48 1;
#X connect 32 0 57 0;
#X connect 33 0 36 0;
#X connect 33 1 49 1;
#X connect 34 0 28 0;
#X connect 35 0 30 0;
#X connect 36 0 32 0;
#X connect 37 0 2 0;
#X connect 37 1 11 0;
#X connect 37 2 12 0;
#X connect 37 3 13 0;
#X connect 37 4 14 0;
#X connect 37 5 38 0;
#X connect 37 6 39 0;
#X connect 37 7 40 0;
#X connect 38 0 29 0;
#X connect 39 0 31 0;
#X connect 40 0 33 0;
#X connect 50 0 42 0;
#X connect 51 0 43 0;
#X connect 52 0 44 0;
#X connect 53 0 45 0;
#X connect 54 0 46 0;
#X connect 55 0 47 0;
#X connect 56 0 48 0;
#X connect 57 0 49 0;
#X connect 58 0 15 0;
#X restore 296 -11 pd show;
#X obj 328 -131 sel 0 26 30 32;
#X msg 285 155 W;
#X msg 300 176 o;
#X msg 315 201 r;
#X msg 330 163 k;
#X msg 345 187 s;
#X msg 364 160 h;
#X msg 382 189 o;
#X msg 425 194 p;
#X obj 231 324 k_range 0 1 6 0;
#X connect 0 0 18 0;
#X connect 1 0 6 0;
#X connect 2 0 1 0;
#X connect 3 0 2 0;
#X connect 3 1 4 0;
#X connect 4 0 5 0;
#X connect 4 0 11 0;
#X connect 5 0 17 0;
#X connect 7 0 6 0;
#X connect 8 0 7 0;
#X connect 9 0 10 0;
#X connect 9 0 19 0;
#X connect 10 0 6 0;
#X connect 11 0 22 0;
#X connect 11 1 15 0;
#X connect 11 2 21 0;
#X connect 12 0 25 0;
#X connect 13 0 0 0;
#X connect 14 0 0 0;
#X connect 15 0 26 0;
#X connect 15 1 27 0;
#X connect 15 2 28 0;
#X connect 15 3 29 0;
#X connect 15 4 30 0;
#X connect 15 5 31 0;
#X connect 15 6 32 0;
#X connect 15 7 33 0;
#X connect 16 0 3 0;
#X connect 17 0 4 1;
#X connect 18 0 16 0;
#X connect 19 0 6 1;
#X connect 21 0 34 0;
#X connect 22 0 1 1;
#X connect 25 0 13 0;
#X connect 25 1 14 0;
#X connect 25 1 24 0;
#X connect 25 2 23 0;
#X connect 25 3 13 0;
#X connect 26 0 8 0;
#X connect 27 0 8 0;
#X connect 28 0 8 0;
#X connect 29 0 8 0;
#X connect 30 0 8 0;
#X connect 31 0 8 0;
#X connect 32 0 8 0;
#X connect 33 0 8 0;
#X connect 34 0 1 2;
#X restore -811 254 pd tutorial;
#N canvas 573 63 900 549 aluanwang 0;
#X obj -30 -121 loadbang;
#X obj -93 -69 gemframebuffer;
#X obj -93 -24 t a a;
#X obj -79 225 loadbang;
#X obj -93 204 color 1 1 1;
#X obj -66 81 square 4;
#X obj -162 269 loadbang;
#X msg -162 292 font ACaslonPro-BoldItalic.otf;
#X obj -66 8 separator;
#X obj -93 125 separator;
#X obj -93 272 text3d;
#X obj -93 180 scaleXYZ 0.5 1 1;
#X msg -50 273 35;
#X obj -93 -44 translateXYZ 0 0 -4;
#X floatatom 4 1 5 0 0 0 - - -;
#N canvas 641 438 273 276 motion 0;
#X obj -632 137 line;
#X obj -632 213 outlet;
#X floatatom -573 25 5 0 0 0 - - -;
#X msg -573 77 8;
#X obj -632 162 incirc;
#X obj -573 4 r time;
#X obj -573 47 sel 0 5;
#X msg -632 112 0 \, 1 1000;
#X obj -632 187 k_range 0 1 8 0;
#X connect 0 0 4 0;
#X connect 2 0 6 0;
#X connect 3 0 1 0;
#X connect 4 0 8 0;
#X connect 5 0 2 0;
#X connect 6 0 3 0;
#X connect 6 1 7 0;
#X connect 7 0 0 0;
#X connect 8 0 1 0;
#X restore 4 -23 pd motion;
#X msg -30 -94 format RGBA \, color 1 1 1 1 \, dimen 1000 1000 \, texunit
2;
#X floatatom -23 126 5 0 0 0 - - -;
#N canvas 641 438 375 268 motion 0;
#X obj -632 137 line;
#X obj -632 213 outlet;
#X floatatom -632 24 5 0 0 0 - - -;
#X obj -632 162 outbounce;
#X msg -632 112 0 \, 1 2500;
#X msg -698 80 -6;
#X obj -632 3 r time;
#X obj -632 47 sel 0 6 13;
#X obj -632 187 k_range 0 1 -6 0;
#X connect 0 0 3 0;
#X connect 2 0 7 0;
#X connect 3 0 8 0;
#X connect 4 0 0 0;
#X connect 5 0 1 0;
#X connect 6 0 2 0;
#X connect 7 0 5 0;
#X connect 7 1 4 0;
#X connect 8 0 1 0;
#X restore -23 102 pd motion;
#X obj -93 155 translateXYZ 0 -6 0;
#X obj -93 -103 gemhead 20;
#X msg -79 246 text Aluan Wang;
#X obj -66 30 translateXYZ 0 8 0;
#X obj -66 57 color 0.23 0.3 0.37;
#X obj -120 55 t a a;
#X obj -270 315 loadbang;
#X obj -284 294 color 1 1 1;
#X obj -284 215 separator;
#X obj -284 362 text3d;
#X msg -270 336 text http://www.dazegraffiti.com/;
#X obj -284 270 scaleXYZ 0.5 1 1;
#X msg -241 363 8;
#X obj -284 244 translateXYZ -1.44 -1.3 0;
#X floatatom -356 1 5 0 0 0 - - -;
#X obj -356 -20 r time;
#X msg -329 60 0 \, 1 1000;
#X obj -329 90 line;
#X msg -381 70 0;
#X obj -329 119 outexpo;
#X obj -356 24 sel 0 9;
#X obj -329 144 k_range 0 1 12 -1.44;
#X connect 0 0 16 0;
#X connect 1 0 13 0;
#X connect 2 0 24 0;
#X connect 2 1 8 0;
#X connect 3 0 21 0;
#X connect 3 0 12 0;
#X connect 4 0 10 0;
#X connect 6 0 7 0;
#X connect 7 0 10 0;
#X connect 7 0 28 0;
#X connect 8 0 22 0;
#X connect 9 0 19 0;
#X connect 11 0 4 0;
#X connect 12 0 10 1;
#X connect 13 0 2 0;
#X connect 14 0 22 2;
#X connect 15 0 14 0;
#X connect 16 0 1 0;
#X connect 17 0 19 2;
#X connect 18 0 17 0;
#X connect 19 0 11 0;
#X connect 20 0 1 0;
#X connect 21 0 10 0;
#X connect 22 0 23 0;
#X connect 23 0 5 0;
#X connect 24 0 27 0;
#X connect 24 1 9 0;
#X connect 25 0 31 0;
#X connect 25 0 29 0;
#X connect 26 0 28 0;
#X connect 27 0 32 0;
#X connect 29 0 28 0;
#X connect 30 0 26 0;
#X connect 31 0 28 1;
#X connect 32 0 30 0;
#X connect 33 0 39 0;
#X connect 34 0 33 0;
#X connect 35 0 36 0;
#X connect 36 0 38 0;
#X connect 37 0 36 0;
#X connect 38 0 40 0;
#X connect 39 0 37 0;
#X connect 39 1 35 0;
#X connect 40 0 32 1;
#X restore -810 161 pd aluanwang;
#X msg -757 -32 color 0.41 0.25 0.4;
#X msg -795 -51 color 0.45 0.64 0.3;
#X obj -847 185 % 40;
#X obj -819 -96 sel 0 11 25 29;
#X obj -906 91 metro 100;
#X obj -906 152 sel 0;
#N canvas 742 124 1280 632 circle-quarter 0;
#X obj 181 311 hsl 128 15 0 1.01 0 0 empty empty empty -2 -8 0 10 -262144
-1 -1 0 1;
#X floatatom 178 333 5 0 0 0 - - -;
#X msg 178 356 end \$1;
#X obj 178 239 line;
#X obj 178 262 inoutexpo;
#X obj 178 288 * 1.01;
#X obj 249 236 loadbang;
#X obj 72 227 line;
#X obj 72 250 inoutexpo;
#X obj 81 449 rotateXYZ 0 0 0;
#X obj 143 164 random 4;
#X obj 143 189 * 90;
#X obj 205 185 * 45;
#X obj 72 277 expr $f1*$f2-$f3;
#X obj 205 162 random 8;
#X obj 266 163 randomF 0.5;
#X floatatom 106 347 5 0 0 0 - - -;
#X msg 240 420 stroke \$1;
#X obj 143 112 t b b b b b;
#X obj 81 375 scale 0;
#X msg 72 197 0 \, 1 3000;
#X obj 67 15 bng 15 250 50 0 empty empty empty 17 7 0 10 -262144 -1
-1;
#X obj 67 36 t b b b;
#X msg 85 67 0 \, 1 1000;
#X obj 148 15 bng 15 250 50 0 empty empty empty 17 7 0 10 -262144 -1
-1;
#X msg 148 37 1 \, 0 1000;
#X obj 81 319 gemhead 40;
#X obj -231 313 hsl 128 15 0 1.01 0 0 empty empty empty -2 -8 0 10
-262144 -1 -1 0 1;
#X floatatom -234 335 5 0 0 0 - - -;
#X msg -234 358 end \$1;
#X obj -234 241 line;
#X obj -234 264 inoutexpo;
#X obj -234 290 * 1.01;
#X obj -163 238 loadbang;
#X obj -340 229 line;
#X obj -340 252 inoutexpo;
#X obj -331 451 rotateXYZ 0 0 0;
#X obj -269 166 random 4;
#X obj -269 191 * 90;
#X obj -207 187 * 45;
#X obj -340 279 expr $f1*$f2-$f3;
#X obj -207 164 random 8;
#X floatatom -306 349 5 0 0 0 - - -;
#X msg -172 422 stroke \$1;
#X obj -71 191 random 0.5;
#X obj -269 114 t b b b b b;
#X obj -331 377 scale 0;
#X msg -340 199 0 \, 1 3000;
#X obj -345 17 bng 15 250 50 0 empty empty empty 17 7 0 10 -262144
-1 -1;
#X obj -345 38 t b b b;
#X msg -327 69 0 \, 1 1000;
#X obj -264 27 bng 15 250 50 0 empty empty empty 17 7 0 10 -262144
-1 -1;
#X msg -264 49 1 \, 0 1000;
#X obj -331 321 gemhead 45;
#X obj 341 215 + 0.501;
#X obj 341 189 random 0.5;
#X obj -71 217 + 0.501;
#X obj 266 189 + 0.5;
#X obj 35 299 > 0;
#X obj -364 296 > 0;
#X obj -382 336 loadbang;
#X msg -382 360 0;
#X obj 25 334 loadbang;
#X msg 25 358 0;
#X obj -587 311 hsl 128 15 0 1.01 0 0 empty empty empty -2 -8 0 10
-262144 -1 -1 0 1;
#X floatatom -590 333 5 0 0 0 - - -;
#X msg -590 356 end \$1;
#X obj -590 239 line;
#X obj -590 262 inoutexpo;
#X obj -590 288 * 1.01;
#X obj -560 465 loadbang;
#X obj -696 227 line;
#X obj -696 250 inoutexpo;
#X obj -687 449 rotateXYZ 0 0 0;
#X obj -625 164 random 4;
#X obj -625 189 * 90;
#X obj -563 185 * 45;
#X obj -696 277 expr $f1*$f2-$f3;
#X obj -563 162 random 8;
#X obj -502 163 randomF 0.5;
#X floatatom -662 347 5 0 0 0 - - -;
#X msg -528 420 stroke \$1;
#X obj -625 112 t b b b b b;
#X obj -687 375 scale 0;
#X msg -696 197 0 \, 1 3000;
#X obj -701 15 bng 15 250 50 0 empty empty empty 17 7 0 10 -262144
-1 -1;
#X obj -701 36 t b b b;
#X msg -683 67 0 \, 1 1000;
#X obj -648 20 bng 15 250 50 0 empty empty empty 17 7 0 10 -262144
-1 -1;
#X msg -648 42 1 \, 0 1000;
#X obj -687 319 gemhead 45;
#X obj -720 294 > 0;
#X obj -738 334 loadbang;
#X msg -738 358 0;
#X obj -146 165 randomF 0.2;
#X obj -502 189 + 4;
#X obj 59 -35 r time;
#X obj -350 -27 r time;
#X obj -703 -41 r time;
#X obj -427 215 + 0.501;
#X obj -427 189 random 0.5;
#X msg -611 4 0;
#X msg -231 15 0;
#X msg 186 9 0;
#X obj -687 474 vj_quarter 0.3;
#X obj -704 -21 sel 17 22 0;
#X obj -351 -7 sel 16 21 0;
#X obj 57 -15 sel 15 20 0;
#X msg -560 486 color 1 1 1 \, drawfill 1 \, drawpoint 1;
#X msg -163 270 color 1 1 1 \, drawfill 1 \, drawpoint 1;
#X msg 249 268 color 1 1 1 \, drawfill 1 \, drawpoint 1;
#X obj -146 190 + 2;
#X obj -172 398 + 0.9;
#X obj -172 372 randomF 0.05;
#X obj 240 396 + 0.3;
#X obj 240 370 randomF 0.1;
#X obj -528 370 randomF 0.2;
#X obj 81 474 vj_quarter 0.3;
#X obj -331 476 vj_quarter 0.3;
#X obj -528 396 + 0.5;
#X connect 0 0 1 0;
#X connect 1 0 2 0;
#X connect 2 0 117 1;
#X connect 3 0 4 0;
#X connect 4 0 5 0;
#X connect 4 0 58 0;
#X connect 5 0 0 0;
#X connect 6 0 110 0;
#X connect 7 0 8 0;
#X connect 8 0 13 0;
#X connect 9 0 117 0;
#X connect 10 0 11 0;
#X connect 11 0 13 1;
#X connect 12 0 13 2;
#X connect 13 0 9 3;
#X connect 14 0 12 0;
#X connect 15 0 57 0;
#X connect 16 0 19 1;
#X connect 17 0 117 1;
#X connect 18 0 10 0;
#X connect 18 1 14 0;
#X connect 18 2 15 0;
#X connect 18 3 115 0;
#X connect 18 4 55 0;
#X connect 19 0 9 0;
#X connect 20 0 7 0;
#X connect 21 0 22 0;
#X connect 22 0 20 0;
#X connect 22 1 23 0;
#X connect 22 2 18 0;
#X connect 23 0 3 0;
#X connect 24 0 25 0;
#X connect 25 0 3 0;
#X connect 26 0 19 0;
#X connect 27 0 28 0;
#X connect 28 0 29 0;
#X connect 29 0 118 1;
#X connect 30 0 31 0;
#X connect 31 0 32 0;
#X connect 31 0 59 0;
#X connect 32 0 27 0;
#X connect 33 0 109 0;
#X connect 34 0 35 0;
#X connect 35 0 40 0;
#X connect 36 0 118 0;
#X connect 37 0 38 0;
#X connect 38 0 40 1;
#X connect 39 0 40 2;
#X connect 40 0 36 3;
#X connect 41 0 39 0;
#X connect 42 0 46 1;
#X connect 43 0 118 1;
#X connect 44 0 56 0;
#X connect 45 0 37 0;
#X connect 45 1 41 0;
#X connect 45 2 94 0;
#X connect 45 3 113 0;
#X connect 45 4 44 0;
#X connect 46 0 36 0;
#X connect 47 0 34 0;
#X connect 48 0 49 0;
#X connect 49 0 47 0;
#X connect 49 1 50 0;
#X connect 49 2 45 0;
#X connect 50 0 30 0;
#X connect 51 0 52 0;
#X connect 52 0 30 0;
#X connect 53 0 46 0;
#X connect 54 0 5 1;
#X connect 55 0 54 0;
#X connect 56 0 32 1;
#X connect 57 0 16 0;
#X connect 58 0 26 0;
#X connect 59 0 53 0;
#X connect 60 0 61 0;
#X connect 61 0 53 0;
#X connect 62 0 63 0;
#X connect 63 0 26 0;
#X connect 64 0 65 0;
#X connect 65 0 66 0;
#X connect 66 0 104 1;
#X connect 67 0 68 0;
#X connect 68 0 69 0;
#X connect 68 0 91 0;
#X connect 69 0 64 0;
#X connect 70 0 108 0;
#X connect 71 0 72 0;
#X connect 72 0 77 0;
#X connect 73 0 104 0;
#X connect 74 0 75 0;
#X connect 75 0 77 1;
#X connect 76 0 77 2;
#X connect 77 0 73 3;
#X connect 78 0 76 0;
#X connect 79 0 95 0;
#X connect 80 0 83 1;
#X connect 81 0 104 1;
#X connect 82 0 74 0;
#X connect 82 1 78 0;
#X connect 82 2 79 0;
#X connect 82 3 116 0;
#X connect 82 4 100 0;
#X connect 83 0 73 0;
#X connect 84 0 71 0;
#X connect 85 0 86 0;
#X connect 86 0 84 0;
#X connect 86 1 87 0;
#X connect 86 2 82 0;
#X connect 87 0 67 0;
#X connect 88 0 89 0;
#X connect 89 0 67 0;
#X connect 90 0 83 0;
#X connect 91 0 90 0;
#X connect 92 0 93 0;
#X connect 93 0 90 0;
#X connect 94 0 111 0;
#X connect 95 0 80 0;
#X connect 96 0 107 0;
#X connect 97 0 106 0;
#X connect 98 0 105 0;
#X connect 99 0 69 1;
#X connect 100 0 99 0;
#X connect 101 0 67 0;
#X connect 102 0 30 0;
#X connect 103 0 3 0;
#X connect 105 0 85 0;
#X connect 105 1 88 0;
#X connect 105 2 101 0;
#X connect 106 0 48 0;
#X connect 106 1 51 0;
#X connect 106 2 102 0;
#X connect 107 0 21 0;
#X connect 107 1 24 0;
#X connect 107 2 103 0;
#X connect 108 0 104 1;
#X connect 109 0 118 1;
#X connect 110 0 117 1;
#X connect 111 0 42 0;
#X connect 112 0 43 0;
#X connect 113 0 112 0;
#X connect 114 0 17 0;
#X connect 115 0 114 0;
#X connect 116 0 119 0;
#X connect 119 0 81 0;
#X restore -703 219 pd circle-quarter;
#N canvas 587 166 828 585 star-square 0;
#X obj -119 485 loadbang;
#X obj 45 237 line;
#X obj 45 181 bng 15 250 50 0 empty empty empty 17 7 0 10 -262144 -1
-1;
#X obj 46 330 expr $f1*(($f3-$f2))+$f2;
#X obj 116 293 unpack f f;
#X obj 91 356 expr $f1*(($f3-$f2))+$f2;
#X obj 233 322 unpack f f;
#X obj 45 287 t f f f;
#X msg 46 418 x \$1;
#X msg 91 426 y \$1;
#X floatatom 46 361 5 0 0 0 - - -;
#X floatatom 91 381 5 0 0 0 - - -;
#X msg 131 215 1 1;
#X msg 147 243 1 -1;
#X msg 163 272 -1 -1;
#X msg 233 213 1 1;
#X msg 248 242 1 -1;
#X msg 264 270 -1 -1;
#X msg 280 299 -1 1;
#X obj 46 444 s move;
#X obj -170 484 r move;
#X msg 116 187 -1 1;
#X obj 233 189 sel 0 1 2 3;
#X obj -233 406 separator;
#X obj -233 333 t a b;
#X obj -233 429 rotateXYZ 0 0 90;
#X floatatom 45 129 5 0 0 0 - - -;
#X obj -233 193 gemhead 60;
#X obj 116 164 sel 0 1 2 3;
#X msg 45 210 0 \, 1 1000;
#X obj -206 357 f;
#X obj -177 357 + 1;
#X msg 45 92 0;
#X msg 66 93 1;
#X msg 88 112 2;
#X obj 45 41 r time;
#X msg -233 163 0;
#X obj -233 137 loadbang;
#X obj -233 222 scale;
#X obj -177 136 line;
#X obj -177 158 > 0.1;
#X msg -177 107 0 \, 1 500;
#X msg -117 109 1 \, 0 500;
#X obj -233 307 repeat 12;
#X obj -147 357 % 12;
#X obj -140 398 * 30;
#X obj -233 522 vj_square 1;
#X msg -119 510 drawfill 1 \, size 0.1 \, speed 100;
#X obj -233 251 t a b;
#X obj -233 456 translateXYZ 1 3 0;
#X obj -177 224 f;
#X obj -227 277 rotateXYZ 0 0 0;
#X obj -109 224 % 360;
#X obj -148 225 + 2;
#X obj 46 396 * 4;
#X obj 91 403 * 2;
#X obj 45 68 sel 32 34 38;
#X connect 0 0 47 0;
#X connect 1 0 7 0;
#X connect 2 0 29 0;
#X connect 3 0 10 0;
#X connect 4 0 3 1;
#X connect 4 1 3 2;
#X connect 5 0 11 0;
#X connect 6 0 5 1;
#X connect 6 1 5 2;
#X connect 7 0 3 0;
#X connect 7 1 5 0;
#X connect 8 0 19 0;
#X connect 9 0 19 0;
#X connect 10 0 54 0;
#X connect 11 0 55 0;
#X connect 12 0 4 0;
#X connect 13 0 4 0;
#X connect 14 0 4 0;
#X connect 15 0 6 0;
#X connect 16 0 6 0;
#X connect 17 0 6 0;
#X connect 18 0 6 0;
#X connect 20 0 46 1;
#X connect 21 0 4 0;
#X connect 22 0 15 0;
#X connect 22 1 16 0;
#X connect 22 2 17 0;
#X connect 22 3 18 0;
#X connect 23 0 25 0;
#X connect 24 0 23 0;
#X connect 24 1 30 0;
#X connect 25 0 49 0;
#X connect 26 0 22 0;
#X connect 26 0 28 0;
#X connect 26 0 2 0;
#X connect 27 0 38 0;
#X connect 28 0 21 0;
#X connect 28 1 12 0;
#X connect 28 2 13 0;
#X connect 28 3 14 0;
#X connect 29 0 1 0;
#X connect 30 0 31 0;
#X connect 30 0 45 0;
#X connect 31 0 44 0;
#X connect 32 0 26 0;
#X connect 33 0 26 0;
#X connect 34 0 26 0;
#X connect 35 0 56 0;
#X connect 36 0 27 0;
#X connect 37 0 36 0;
#X connect 38 0 48 0;
#X connect 39 0 38 1;
#X connect 39 0 40 0;
#X connect 40 0 27 0;
#X connect 41 0 39 0;
#X connect 42 0 39 0;
#X connect 43 0 24 0;
#X connect 44 0 30 1;
#X connect 45 0 25 3;
#X connect 47 0 46 1;
#X connect 48 0 51 0;
#X connect 48 1 50 0;
#X connect 49 0 46 0;
#X connect 50 0 51 3;
#X connect 50 0 53 0;
#X connect 51 0 43 0;
#X connect 52 0 50 1;
#X connect 53 0 52 0;
#X connect 54 0 8 0;
#X connect 55 0 9 0;
#X connect 56 0 32 0;
#X connect 56 0 41 0;
#X connect 56 1 33 0;
#X connect 56 2 34 0;
#X connect 56 2 42 0;
#X restore -703 243 pd star-square;
#N canvas 320 347 967 458 date 0;
#X obj 85 -2 gemhead;
#X obj 79 135 text2d;
#X obj 144 117 loadbang;
#X msg 144 140 font ACaslonPro-BoldItalic.otf;
#X msg 120 60 text 2014 2/24 - 4/21;
#X obj 174 166 gemhead;
#X obj 168 303 text2d;
#X obj 296 263 loadbang;
#X msg 296 286 font ACaslonPro-BoldItalic.otf;
#X msg 209 228 text Monday 7pm - 9pm;
#X obj 172 205 translateXYZ 1.58 -1 0;
#X obj 127 29 loadbang;
#X obj 368 -2 r time;
#X msg 202 29 0;
#X msg 366 98 0 \, 1 1000;
#X obj 365 154 outbounce;
#X obj 369 126 line;
#X obj 368 215 > 0;
#X msg 477 106 0 \, 1 1000;
#X obj 476 162 outbounce;
#X obj 480 134 line;
#X obj 479 223 > 0;
#X obj 620 243 t a b;
#X obj 647 267 f;
#X obj 679 267 + 1;
#X obj 709 267 % 5;
#X obj 619 366 alpha;
#X obj 619 404 circle 1;
#X obj 543 372 loadbang;
#X msg 541 396 1;
#X obj 620 217 repeat 5;
#X obj 624 145 gemhead;
#X obj 618 308 scale 3;
#X obj 581 281 separator;
#X obj 620 341 colorRGB 1 1 1 0.05;
#X obj 680 306 * 1.5;
#X obj 682 15 r time;
#X obj 684 97 line;
#X obj 625 186 scale;
#X msg 684 68 0 \, 1 2000;
#X obj 683 123 outelastic;
#X msg 753 69 1 \, 0 1000;
#X obj 602 63 loadbang;
#X msg 602 83 0;
#X obj 624 109 > 0;
#X obj 682 42 sel 34 1;
#X obj 369 28 sel 34 35 38 39;
#X msg 455 67 1 \, 0 1000;
#X msg 387 65 1 \, 0 2000;
#X obj 366 187 k_range 0 1 0 60;
#X obj 477 195 k_range 0 1 0 30;
#X connect 0 0 1 0;
#X connect 2 0 3 0;
#X connect 3 0 1 0;
#X connect 4 0 1 0;
#X connect 5 0 10 0;
#X connect 7 0 8 0;
#X connect 8 0 6 0;
#X connect 9 0 6 0;
#X connect 10 0 6 0;
#X connect 11 0 4 0;
#X connect 11 0 9 0;
#X connect 11 0 13 0;
#X connect 12 0 46 0;
#X connect 13 0 0 0;
#X connect 13 0 5 0;
#X connect 14 0 16 0;
#X connect 15 0 49 0;
#X connect 16 0 15 0;
#X connect 17 0 0 0;
#X connect 18 0 20 0;
#X connect 19 0 50 0;
#X connect 20 0 19 0;
#X connect 21 0 5 0;
#X connect 22 0 33 0;
#X connect 22 1 23 0;
#X connect 23 0 24 0;
#X connect 23 0 35 0;
#X connect 24 0 25 0;
#X connect 25 0 23 1;
#X connect 26 0 27 0;
#X connect 28 0 29 0;
#X connect 29 0 26 1;
#X connect 30 0 22 0;
#X connect 31 0 38 0;
#X connect 32 0 34 0;
#X connect 33 0 32 0;
#X connect 34 0 26 0;
#X connect 35 0 32 1;
#X connect 36 0 45 0;
#X connect 37 0 40 0;
#X connect 37 0 44 0;
#X connect 38 0 30 0;
#X connect 39 0 37 0;
#X connect 40 0 38 1;
#X connect 41 0 37 0;
#X connect 42 0 43 0;
#X connect 43 0 31 0;
#X connect 44 0 31 0;
#X connect 45 0 39 0;
#X connect 45 1 41 0;
#X connect 46 0 14 0;
#X connect 46 1 18 0;
#X connect 46 2 48 0;
#X connect 46 3 47 0;
#X connect 47 0 20 0;
#X connect 48 0 16 0;
#X connect 49 0 1 1;
#X connect 49 0 17 0;
#X connect 50 0 21 0;
#X connect 50 0 6 1;
#X restore -699 104 pd date;
#N canvas 607 319 597 418 ch-sense 0;
#X obj -524 119 line;
#X floatatom -558 44 5 0 0 0 - - -;
#X obj -558 23 r time;
#X floatatom -524 195 5 0 0 0 - - -;
#X obj -452 84 line;
#X floatatom -452 192 5 0 0 0 - - -;
#X msg -558 96 0;
#X obj -576 199 > 0;
#X obj -604 179 loadbang;
#X msg -604 199 0;
#X obj -404 190 line;
#X obj -404 215 outcirc;
#X msg -404 165 0 \, 1 500;
#X obj -558 66 sel 0 14 15 22;
#X obj -576 337 vj_rect 0 0;
#X obj -576 306 scaleXYZ 0.01 4 1;
#X obj -612 150 unpack f f;
#X obj -576 257 translateXYZ 0 0 0;
#X msg -452 59 0 \, 1 700;
#X obj -576 226 gemhead 40;
#X obj -186 181 line;
#X floatatom -186 231 5 0 0 0 - - -;
#X obj -281 310 scaleXYZ 8 4 4;
#X obj -281 260 gemhead 100;
#X obj -186 206 inquint;
#X obj -281 341 vj_rect2;
#X obj -107 309 line;
#X obj -107 334 inquint;
#X msg -132 244 0;
#X floatatom -299 72 5 0 0 0 - - -;
#X obj -299 51 r time;
#X msg -186 156 0.45 \, 1 400;
#X floatatom -132 198 5 0 0 0 - - -;
#X obj -132 177 r time;
#X msg -260 156 0 \, 0.45 400;
#X obj -576 282 color 1 0.6 0.7;
#X obj -452 109 outexpo;
#X msg -524 94 0 \, 1 500;
#X obj -132 220 sel 24 29;
#X msg -107 275 0 \, 1 500;
#X msg -611 131 0.05 4;
#X obj -524 144 outcirc;
#X obj -264 228 > 0;
#X obj -299 94 sel 24 25 0;
#X msg -203 118 0;
#X obj -281 285 color 0.3 5 0.8;
#X obj -452 135 k_range 0 1 0.05 8;
#X obj -524 169 k_range 0 1 15 0;
#X obj -404 239 k_range 0 1 4 0;
#X connect 0 0 7 0;
#X connect 0 0 41 0;
#X connect 1 0 13 0;
#X connect 2 0 1 0;
#X connect 3 0 17 2;
#X connect 4 0 36 0;
#X connect 5 0 15 1;
#X connect 6 0 46 0;
#X connect 6 0 47 0;
#X connect 7 0 19 0;
#X connect 8 0 9 0;
#X connect 9 0 19 0;
#X connect 9 0 23 0;
#X connect 10 0 11 0;
#X connect 11 0 48 0;
#X connect 12 0 10 0;
#X connect 13 0 6 0;
#X connect 13 0 40 0;
#X connect 13 2 18 0;
#X connect 13 2 37 0;
#X connect 13 3 12 0;
#X connect 15 0 14 0;
#X connect 16 0 15 1;
#X connect 16 1 15 2;
#X connect 17 0 35 0;
#X connect 18 0 4 0;
#X connect 19 0 17 0;
#X connect 20 0 24 0;
#X connect 20 0 42 0;
#X connect 21 0 25 1;
#X connect 22 0 25 0;
#X connect 23 0 45 0;
#X connect 24 0 21 0;
#X connect 26 0 27 0;
#X connect 27 0 25 2;
#X connect 28 0 26 0;
#X connect 29 0 43 0;
#X connect 30 0 29 0;
#X connect 31 0 20 0;
#X connect 32 0 38 0;
#X connect 33 0 32 0;
#X connect 34 0 20 0;
#X connect 35 0 15 0;
#X connect 36 0 46 0;
#X connect 37 0 0 0;
#X connect 38 0 28 0;
#X connect 38 1 39 0;
#X connect 39 0 26 0;
#X connect 40 0 16 0;
#X connect 41 0 47 0;
#X connect 42 0 23 0;
#X connect 43 0 34 0;
#X connect 43 1 31 0;
#X connect 43 2 44 0;
#X connect 44 0 20 0;
#X connect 45 0 22 0;
#X connect 46 0 5 0;
#X connect 47 0 3 0;
#X connect 48 0 15 2;
#X restore -700 148 pd ch-sense;
#N canvas 732 258 627 527 radio 0;
#X obj 172 137 loadbang;
#X msg 324 116 num \$1;
#X obj 324 91 int;
#X obj 89 158 rotateXYZ;
#X obj 142 -35 line;
#X obj 142 -15 outquad;
#X obj 141 56 expr abs($f1-0.5)+0.5;
#X obj 142 8 t f f f;
#X obj 161 37 * 30;
#X obj 17 -62 line;
#X msg 17 -95 0 \, 1 1000;
#X obj 89 126 scale 0;
#X obj 89 196 vj_radio;
#X obj 89 92 gemhead;
#X obj 105 -231 r time;
#X msg -43 -147 0;
#X obj 17 -36 outbounce;
#X msg 142 -62 0 \, 1 2000;
#X obj 105 -196 sel 0 2 6;
#X msg 145 -150 1 \, 4 1000;
#X obj -51 15 expr if($f1>0&&$f1<4 \, 1 \, 0);
#X obj 8 94 loadbang;
#X msg 8 113 0;
#X msg 172 157 size 0.03 0.3 \, color 1 0.31 0.43 \, num 30 \, radius
2;
#X obj 324 66 k_range 0 1 6 30;
#X connect 0 0 23 0;
#X connect 1 0 12 1;
#X connect 2 0 1 0;
#X connect 3 0 12 0;
#X connect 4 0 5 0;
#X connect 5 0 7 0;
#X connect 6 0 11 1;
#X connect 7 0 6 0;
#X connect 7 1 8 0;
#X connect 7 2 24 0;
#X connect 8 0 3 3;
#X connect 9 0 16 0;
#X connect 10 0 9 0;
#X connect 11 0 3 0;
#X connect 13 0 11 0;
#X connect 14 0 18 0;
#X connect 15 0 9 0;
#X connect 16 0 11 1;
#X connect 16 0 20 0;
#X connect 17 0 4 0;
#X connect 18 0 15 0;
#X connect 18 1 10 0;
#X connect 18 1 17 0;
#X connect 18 2 19 0;
#X connect 19 0 9 0;
#X connect 20 0 13 0;
#X connect 21 0 22 0;
#X connect 22 0 13 0;
#X connect 23 0 12 1;
#X connect 24 0 2 0;
#X restore -703 171 pd radio;
#N canvas 366 140 678 673 pyramid 0;
#X floatatom 74 323 5 0 0 0 - - -;
#X floatatom 199 335 5 0 0 0 - - -;
#X obj 74 221 line;
#X obj 74 244 inoutexpo;
#X obj 199 259 line;
#X obj 199 282 inoutexpo;
#X obj 74 273 * -90;
#X obj 239 549 loadbang;
#X msg 74 134 1;
#X msg 74 196 \$1 1000;
#X msg 239 572 color 0.2 0.4 0.7 \, drawfill 1 \, drawline 1 \, width
1;
#X obj 224 605 vj_pyramid 1 1;
#X obj 319 -11 r time;
#X floatatom 319 16 5 0 0 0 - - -;
#X msg 249 156 0;
#X obj 199 313 * 360;
#X obj 40 356 gemhead 5;
#X obj 74 166 t f f;
#X obj -2 303 loadbang;
#X msg -2 323 0;
#X obj 40 330 > 0;
#X obj 40 484 repeat 3;
#X obj 40 509 t a b;
#X obj 224 376 separator;
#X obj 224 405 translateXYZ;
#X obj 95 514 f;
#X obj 125 515 + 1;
#X obj 159 514 % 3;
#X obj 361 399 table tri-s 4;
#X msg 357 435 \; tri-s const 0;
#X obj 224 484 scale 1;
#X obj 95 538 t f f;
#X obj 118 603 tabread tri-s;
#X msg 376 248 0;
#X obj 341 223 t f b;
#X obj 340 279 tabwrite tri-s;
#X obj 442 222 t f b;
#X obj 441 278 tabwrite tri-s;
#X obj 542 227 t f b;
#X obj 541 283 tabwrite tri-s;
#X msg 477 247 1;
#X msg 577 252 2;
#X obj 339 143 line;
#X obj 339 166 outbounce;
#X msg 339 90 0;
#X obj 435 144 line;
#X msg 435 119 \$1 1000;
#X obj 435 167 outbounce;
#X obj 539 155 line;
#X msg 539 130 \$1 1000;
#X obj 539 178 outbounce;
#X obj 224 446 rotateXYZ 0 0 0;
#X msg 199 234 \$1 2000;
#X obj 539 72 del 400;
#X obj 435 58 del 700;
#X msg 339 118 \$1 1000;
#X msg 494 -19 1;
#X msg 494 6 \$1 500;
#X obj 435 193 * 1.2;
#X obj 339 191 * 0.9;
#X obj 539 204 * 0.9;
#X obj 319 45 sel 25 26 27;
#X obj 346 67 t b b b;
#X msg 431 91 0;
#X msg 550 98 0;
#X obj 96 563 k_range 0 2 -3 3;
#X connect 0 0 51 1;
#X connect 1 0 51 3;
#X connect 2 0 3 0;
#X connect 3 0 6 0;
#X connect 4 0 5 0;
#X connect 5 0 15 0;
#X connect 6 0 0 0;
#X connect 7 0 10 0;
#X connect 8 0 17 0;
#X connect 9 0 2 0;
#X connect 10 0 11 1;
#X connect 12 0 13 0;
#X connect 13 0 61 0;
#X connect 14 0 2 0;
#X connect 14 0 4 0;
#X connect 15 0 1 0;
#X connect 16 0 21 0;
#X connect 17 0 9 0;
#X connect 17 1 52 0;
#X connect 18 0 19 0;
#X connect 19 0 16 0;
#X connect 20 0 16 0;
#X connect 21 0 22 0;
#X connect 22 0 23 0;
#X connect 22 1 25 0;
#X connect 23 0 24 0;
#X connect 24 0 51 0;
#X connect 25 0 26 0;
#X connect 25 0 31 0;
#X connect 26 0 27 0;
#X connect 27 0 25 1;
#X connect 30 0 11 0;
#X connect 31 0 65 0;
#X connect 31 1 32 0;
#X connect 32 0 30 1;
#X connect 33 0 35 1;
#X connect 34 0 35 0;
#X connect 34 1 33 0;
#X connect 36 0 37 0;
#X connect 36 1 40 0;
#X connect 38 0 39 0;
#X connect 38 1 41 0;
#X connect 40 0 37 1;
#X connect 41 0 39 1;
#X connect 42 0 43 0;
#X connect 43 0 59 0;
#X connect 44 0 55 0;
#X connect 45 0 47 0;
#X connect 46 0 45 0;
#X connect 47 0 58 0;
#X connect 48 0 50 0;
#X connect 49 0 48 0;
#X connect 50 0 60 0;
#X connect 51 0 30 0;
#X connect 52 0 4 0;
#X connect 53 0 64 0;
#X connect 54 0 63 0;
#X connect 55 0 42 0;
#X connect 56 0 57 0;
#X connect 57 0 42 0;
#X connect 57 0 45 0;
#X connect 57 0 48 0;
#X connect 58 0 36 0;
#X connect 58 0 20 0;
#X connect 59 0 34 0;
#X connect 60 0 38 0;
#X connect 61 0 14 0;
#X connect 61 1 8 0;
#X connect 61 1 56 0;
#X connect 61 2 62 0;
#X connect 62 0 44 0;
#X connect 62 1 54 0;
#X connect 62 2 53 0;
#X connect 63 0 46 0;
#X connect 64 0 49 0;
#X connect 65 0 24 1;
#X restore -699 126 pd pyramid;
#N canvas 815 333 596 449 matrix-circle 0;
#X obj 104 90 repeat 32;
#X obj 101 113 t a b;
#X obj 204 97 f;
#X obj 229 98 + 1;
#X obj 256 99 % 32;
#X obj 109 137 separator;
#X obj 106 172 translateXYZ;
#X obj 105 41 alpha;
#X msg 157 56 1;
#X obj 157 32 loadbang;
#X obj 203 130 % 8;
#X obj 330 101 expr int($f1/8);
#X obj 105 7 colorRGB 1 1 1 0.1;
#X obj 68 238 gate 2;
#X msg 24 175 1;
#X obj 242 -80 r time;
#X msg 286 -3 0 \, 1 1000;
#X obj 241 25 outbounce;
#X obj 242 1 line;
#X msg 307 -29 1 \, 0 1000;
#X msg 57 195 2;
#X obj 104 199 scale 1;
#X obj 104 -44 gemhead 200;
#X obj 125 273 square 0.8;
#X obj 239 -59 sel 3 7 26 30;
#X obj 30 273 circle 0.2;
#X obj 203 164 k_range 0 7 -7 7;
#X obj 330 129 k_range 0 3 3 -3;
#X connect 0 0 1 0;
#X connect 1 0 5 0;
#X connect 1 1 2 0;
#X connect 2 0 3 0;
#X connect 2 0 10 0;
#X connect 2 0 11 0;
#X connect 3 0 4 0;
#X connect 4 0 2 1;
#X connect 5 0 6 0;
#X connect 6 0 21 0;
#X connect 7 0 0 0;
#X connect 8 0 7 1;
#X connect 9 0 8 0;
#X connect 10 0 26 0;
#X connect 11 0 27 0;
#X connect 12 0 7 0;
#X connect 13 0 25 0;
#X connect 13 1 23 0;
#X connect 14 0 13 0;
#X connect 15 0 24 0;
#X connect 16 0 18 0;
#X connect 17 0 21 1;
#X connect 18 0 17 0;
#X connect 19 0 18 0;
#X connect 20 0 13 0;
#X connect 21 0 13 1;
#X connect 22 0 12 0;
#X connect 24 0 16 0;
#X connect 24 0 14 0;
#X connect 24 1 19 0;
#X connect 24 2 16 0;
#X connect 24 2 20 0;
#X connect 24 3 19 0;
#X connect 26 0 6 1;
#X connect 27 0 6 2;
#X restore -808 93 pd matrix-circle;
#N canvas 647 285 912 493 mousein 0;
#X obj -200 0 gemmouse 1 1;
#X obj -131 62 s mouseRight;
#X obj -173 156 v x;
#X obj -135 155 v y;
#X obj -183 107 expr ($f1*-8)+4;
#X obj -200 204 s mousePos;
#X obj -200 178 pack f f;
#X obj -200 132 t f f;
#X obj -162 133 t f f;
#X obj -166 42 s mouseLeft;
#X obj -149 21 s mouseMiddle;
#X obj -200 82 expr ($f1*16)-8;
#X obj 0 214 square;
#X obj 2 117 k_btn 7.5 0 0.2 3;
#X obj 1 160 colorRGB 1 1 1 0.7;
#X obj 6 38 gemhead 200;
#X obj 1 186 alpha;
#X obj 40 76 r mousePos;
#X obj 214 59 r time;
#X obj 124 363 alpha;
#X obj 126 335 colorRGB 0 0 0 1;
#X obj 131 213 gemhead 300;
#X floatatom 214 245 5 0 0 0 - - -;
#X obj 125 388 rectangle 0.25 0.03;
#X obj 128 286 translateXYZ 7.5 0 0;
#X obj 215 207 line;
#X msg 215 186 \$1 500;
#X obj 10 307 spigot;
#X obj 10 259 r mousePos;
#X obj 10 335 unpack f f;
#X obj 162 146 s totgl;
#X obj 161 124 invert;
#X obj 293 375 outlet;
#X obj 292 233 int;
#X floatatom 292 255 5 0 0 0 - - -;
#X obj 292 318 spigot;
#X obj 47 239 r mouseLeft;
#X obj 10 282 spigot;
#X obj 352 273 r mouseLeft;
#X obj 352 298 expr if($f1+$f2==2 \, 1 \, 0);
#X obj 122 98 t f f f;
#X obj 213 118 spigot;
#X obj 260 115 invert;
#X floatatom 214 84 5 0 0 0 - - -;
#X obj 260 138 tgl 15 0 empty empty empty 17 7 0 10 -262144 -1 -1 1
1;
#X obj 344 334 t f f;
#X obj 369 360 tgl 15 0 empty empty empty 17 7 0 10 -262144 -1 -1 0
1;
#X obj 215 163 k_range 0 39 -3 3;
#X obj 292 211 k_range -3 3 0 39;
#X connect 0 0 11 0;
#X connect 0 1 4 0;
#X connect 0 2 9 0;
#X connect 0 3 10 0;
#X connect 0 4 1 0;
#X connect 4 0 8 0;
#X connect 6 0 5 0;
#X connect 7 0 6 0;
#X connect 7 1 2 0;
#X connect 8 0 6 1;
#X connect 8 1 3 0;
#X connect 11 0 7 0;
#X connect 13 0 14 0;
#X connect 13 1 40 0;
#X connect 14 0 16 0;
#X connect 15 0 13 0;
#X connect 16 0 12 0;
#X connect 17 0 13 1;
#X connect 18 0 43 0;
#X connect 19 0 23 0;
#X connect 20 0 19 0;
#X connect 21 0 24 0;
#X connect 22 0 24 2;
#X connect 22 0 48 0;
#X connect 24 0 20 0;
#X connect 25 0 22 0;
#X connect 26 0 25 0;
#X connect 27 0 29 0;
#X connect 28 0 37 0;
#X connect 29 1 22 0;
#X connect 31 0 30 0;
#X connect 33 0 34 0;
#X connect 34 0 35 0;
#X connect 35 0 32 0;
#X connect 36 0 37 1;
#X connect 37 0 27 0;
#X connect 38 0 39 0;
#X connect 39 0 45 0;
#X connect 40 0 27 1;
#X connect 40 1 39 1;
#X connect 40 2 31 0;
#X connect 41 0 47 0;
#X connect 42 0 44 0;
#X connect 43 0 41 0;
#X connect 44 0 41 1;
#X connect 45 0 35 1;
#X connect 45 1 46 0;
#X connect 46 0 42 0;
#X connect 47 0 26 0;
#X connect 48 0 33 0;
#X restore -981 100 pd mousein;
#X obj -906 22 r totgl;
#X obj -906 128 f 0;
#X obj -906 186 f 0;
#X floatatom -981 124 5 0 0 0 - - -;
#X obj -841 38 sel 1;
#X msg -839 58 0;
#X obj -851 127 % 5;
#X obj -878 128 + 1;
#X obj -906 67 change;
#N canvas 666 291 760 417 ruler 0;
#X obj 80 161 vj_ruler;
#X obj 241 -88 r time;
#X msg 144 113 0 0;
#X msg 254 72 0 \, 1 1000;
#X obj 353 178 k_range 0 1 0 1;
#X obj 254 140 t f f;
#X obj 252 215 pack f f;
#X obj 254 178 k_range 0 1 0 1;
#X obj 338 48 randomF 8;
#X obj 156 -43 loadbang;
#X obj 80 38 alpha;
#X msg 156 -17 0;
#X obj 80 -79 > 0;
#X obj 254 94 line;
#X obj 254 117 outexpo;
#X obj 80 -43 gemhead 200;
#X obj 403 77 + 10;
#X obj 403 48 randomF 10;
#X obj 340 73 + 10;
#X obj 241 19 t b b b b b b;
#X obj 460 -36 random 2;
#X obj 482 46 random 2;
#X obj 338 99 / 10;
#X obj 401 103 / 10;
#X obj 460 -14 expr if($f1==0 \, 5 \, -5);
#X obj 482 69 expr if($f1==0 \, 5 \, -5);
#X obj 20 -37 loadbang;
#X msg 20 -14 0;
#N canvas 840 283 584 422 pos 0;
#X obj 178 -138 inlet;
#X obj 93 242 outlet;
#X obj 204 245 outlet;
#X msg 101 158 -6 -1.3;
#X msg 324 -49 5.5 -1.3;
#X msg 174 -23 0 \, 1 1000;
#X obj 273 83 k_range 0 1 0 1;
#X obj 174 45 t f f;
#X obj 172 120 pack f f;
#X obj 174 83 k_range 0 1 0 1;
#X obj 174 -1 line;
#X obj 174 22 outexpo;
#X obj 274 24 unpack f f;
#X obj 317 -18 unpack f f;
#X obj 289 -129 inlet;
#X msg 288 -100 1 \, 0 1000;
#X msg 251 -11 -6 -1.3;
#X obj 184 -84 t b b b b b;
#X floatatom 241 139 5 0 0 0 - - -;
#X obj 8 152 outlet;
#X connect 0 0 17 0;
#X connect 3 0 1 0;
#X connect 3 0 2 0;
#X connect 4 0 13 0;
#X connect 5 0 10 0;
#X connect 6 0 8 1;
#X connect 7 0 9 0;
#X connect 7 1 6 0;
#X connect 8 0 2 0;
#X connect 9 0 8 0;
#X connect 9 0 18 0;
#X connect 10 0 11 0;
#X connect 10 0 19 0;
#X connect 11 0 7 0;
#X connect 12 0 9 3;
#X connect 12 1 6 3;
#X connect 13 0 9 4;
#X connect 13 1 6 4;
#X connect 14 0 15 0;
#X connect 15 0 10 0;
#X connect 16 0 12 0;
#X connect 17 0 5 0;
#X connect 17 1 3 0;
#X connect 17 3 16 0;
#X connect 17 4 4 0;
#X restore 93 78 pd pos;
#X obj 81 13 colorRGB 1 1 0 1;
#X msg 266 -30 1 \, 0 1000;
#X obj 241 -62 sel 17 20 24 27;
#X connect 1 0 31 0;
#X connect 2 0 0 1;
#X connect 3 0 13 0;
#X connect 4 0 6 1;
#X connect 5 0 7 0;
#X connect 5 1 4 0;
#X connect 6 0 0 2;
#X connect 7 0 6 0;
#X connect 8 0 18 0;
#X connect 9 0 11 0;
#X connect 10 0 0 0;
#X connect 11 0 10 1;
#X connect 12 0 15 0;
#X connect 13 0 12 0;
#X connect 13 0 14 0;
#X connect 14 0 5 0;
#X connect 15 0 29 0;
#X connect 16 0 23 0;
#X connect 17 0 16 0;
#X connect 18 0 22 0;
#X connect 19 0 2 0;
#X connect 19 1 3 0;
#X connect 19 2 8 0;
#X connect 19 3 17 0;
#X connect 19 4 20 0;
#X connect 19 5 21 0;
#X connect 20 0 24 0;
#X connect 21 0 25 0;
#X connect 22 0 7 4;
#X connect 23 0 4 4;
#X connect 24 0 22 1;
#X connect 25 0 23 1;
#X connect 26 0 27 0;
#X connect 27 0 15 0;
#X connect 28 0 12 0;
#X connect 28 1 0 1;
#X connect 28 2 0 2;
#X connect 29 0 10 0;
#X connect 30 0 13 0;
#X connect 31 0 19 0;
#X connect 31 1 30 0;
#X connect 31 2 28 0;
#X connect 31 3 28 1;
#X restore -904 330 pd ruler;
#X msg -952 -12 reset \, dimen 800 400 \, FSAA 8 \, create \, 1;
#X connect 1 0 0 0;
#X connect 2 0 1 0;
#X connect 2 1 44 0;
#X connect 3 0 2 0;
#X connect 3 0 7 0;
#X connect 3 0 38 0;
#X connect 4 0 5 0;
#X connect 7 0 42 0;
#X connect 8 0 22 0;
#X connect 9 0 10 0;
#X connect 14 0 23 0;
#X connect 15 0 0 0;
#X connect 20 0 0 0;
#X connect 21 0 0 0;
#X connect 22 0 36 1;
#X connect 23 0 15 0;
#X connect 23 1 21 0;
#X connect 23 2 20 0;
#X connect 23 3 15 0;
#X connect 24 0 35 0;
#X connect 25 0 36 0;
#X connect 33 0 37 0;
#X connect 34 0 7 0;
#X connect 35 0 25 0;
#X connect 35 0 41 0;
#X connect 36 0 9 0;
#X connect 36 0 8 0;
#X connect 37 0 36 0;
#X connect 38 0 39 0;
#X connect 39 0 35 1;
#X connect 39 0 36 1;
#X connect 40 0 35 1;
#X connect 41 0 40 0;
#X connect 42 0 24 0;
#X connect 44 0 0 0;
